<svg width="330" height="226" viewBox="0 0 330 226" fill="none" xmlns="http://www.w3.org/2000/svg">
<path d="M7.488 191V137.288H7.56L33.192 173.648L59.184 137.288H59.256V191H52.344V157.376L33.192 184.448H33.048L14.256 158.312V191H7.488ZM69.9666 175.808C69.9666 172.832 70.6626 170.144 72.0546 167.744C73.4946 165.344 75.4626 163.448 77.9586 162.056C80.4546 160.664 83.3106 159.968 86.5266 159.968C89.7426 159.968 92.5746 160.664 95.0226 162.056C97.4706 163.448 99.3666 165.344 100.711 167.744C102.103 170.144 102.799 172.832 102.799 175.808C102.799 178.784 102.103 181.472 100.711 183.872C99.3666 186.272 97.4466 188.192 94.9506 189.632C92.5026 191.024 89.6466 191.72 86.3826 191.72C83.2146 191.72 80.3826 191.072 77.8866 189.776C75.4386 188.48 73.4946 186.632 72.0546 184.232C70.6626 181.832 69.9666 179.024 69.9666 175.808ZM76.7346 175.88C76.7346 177.8 77.1426 179.552 77.9586 181.136C78.8226 182.672 79.9746 183.896 81.4146 184.808C82.8546 185.72 84.4866 186.176 86.3106 186.176C88.1826 186.176 89.8386 185.72 91.2786 184.808C92.7186 183.896 93.8466 182.672 94.6626 181.136C95.5266 179.552 95.9586 177.8 95.9586 175.88C95.9586 173.96 95.5266 172.232 94.6626 170.696C93.8466 169.112 92.7186 167.864 91.2786 166.952C89.8386 165.992 88.1826 165.512 86.3106 165.512C84.4866 165.512 82.8306 165.992 81.3426 166.952C79.9026 167.912 78.7746 169.184 77.9586 170.768C77.1426 172.304 76.7346 174.008 76.7346 175.88ZM122.975 191.864L106.415 161.192H114.407L123.407 180.272L131.759 161.192H139.247L123.335 191.864H122.975ZM154.881 191.576C152.721 191.576 150.633 191.216 148.617 190.496C146.649 189.728 145.017 188.6 143.721 187.112L146.601 183.224C147.801 184.424 149.073 185.336 150.417 185.96C151.761 186.536 153.057 186.824 154.305 186.824C155.745 186.824 156.993 186.536 158.049 185.96C159.153 185.384 159.705 184.4 159.705 183.008C159.705 181.952 159.345 181.112 158.625 180.488C157.953 179.864 157.065 179.384 155.961 179.048C154.905 178.664 153.801 178.28 152.649 177.896C147.561 176.264 145.017 173.36 145.017 169.184C145.017 167.648 145.401 166.184 146.169 164.792C146.985 163.4 148.161 162.272 149.697 161.408C151.281 160.544 153.225 160.112 155.529 160.112C157.593 160.112 159.441 160.376 161.073 160.904C162.705 161.432 164.241 162.272 165.681 163.424L163.017 167.528C162.153 166.664 161.121 166.016 159.921 165.584C158.769 165.104 157.713 164.84 156.753 164.792C155.457 164.792 154.305 165.104 153.297 165.728C152.337 166.352 151.857 167.216 151.857 168.32C151.809 169.328 152.121 170.144 152.793 170.768C153.465 171.344 154.329 171.824 155.385 172.208C156.489 172.592 157.593 172.952 158.697 173.288C160.857 174.008 162.681 174.992 164.169 176.24C165.705 177.488 166.473 179.312 166.473 181.712C166.473 184.4 165.513 186.728 163.593 188.696C161.673 190.616 158.769 191.576 154.881 191.576ZM172.32 191L195.072 136.784H195.504L218.256 191H210.192L204.792 177.32H184.776L179.232 191H172.32ZM187.224 171.272H202.416L195 152.336L187.224 171.272ZM243.972 191.72C241.812 191.72 239.724 191.264 237.708 190.352C235.74 189.392 234.18 188.12 233.028 186.536V205.328H226.332V160.688H232.164L232.74 165.728C234.18 164.048 235.956 162.68 238.068 161.624C240.228 160.52 242.604 159.968 245.196 159.968C248.028 159.968 250.548 160.64 252.756 161.984C255.012 163.328 256.788 165.2 258.084 167.6C259.38 170 260.028 172.808 260.028 176.024C260.028 179.24 259.308 182.024 257.868 184.376C256.476 186.728 254.556 188.552 252.108 189.848C249.708 191.096 246.996 191.72 243.972 191.72ZM242.676 186.32C244.548 186.32 246.276 185.888 247.86 185.024C249.492 184.112 250.788 182.888 251.748 181.352C252.708 179.816 253.188 178.064 253.188 176.096C253.188 174.08 252.732 172.304 251.82 170.768C250.908 169.184 249.684 167.96 248.148 167.096C246.66 166.184 244.98 165.728 243.108 165.728C240.516 165.728 238.332 166.448 236.556 167.888C234.78 169.328 233.604 171.2 233.028 173.504V178.544C233.412 180.8 234.492 182.672 236.268 184.16C238.092 185.6 240.228 186.32 242.676 186.32ZM286.652 191.72C284.492 191.72 282.404 191.264 280.388 190.352C278.42 189.392 276.86 188.12 275.708 186.536V205.328H269.012V160.688H274.844L275.42 165.728C276.86 164.048 278.636 162.68 280.748 161.624C282.908 160.52 285.284 159.968 287.876 159.968C290.708 159.968 293.228 160.64 295.436 161.984C297.692 163.328 299.468 165.2 300.764 167.6C302.06 170 302.708 172.808 302.708 176.024C302.708 179.24 301.988 182.024 300.548 184.376C299.156 186.728 297.236 188.552 294.788 189.848C292.388 191.096 289.676 191.72 286.652 191.72ZM285.356 186.32C287.228 186.32 288.956 185.888 290.54 185.024C292.172 184.112 293.468 182.888 294.428 181.352C295.388 179.816 295.868 178.064 295.868 176.096C295.868 174.08 295.412 172.304 294.5 170.768C293.588 169.184 292.364 167.96 290.828 167.096C289.34 166.184 287.66 165.728 285.788 165.728C283.196 165.728 281.012 166.448 279.236 167.888C277.46 169.328 276.284 171.2 275.708 173.504V178.544C276.092 180.8 277.172 182.672 278.948 184.16C280.772 185.6 282.908 186.32 285.356 186.32Z" fill="#333333"/>
<path fill-rule="evenodd" clip-rule="evenodd" d="M157.58 122.227L191.603 88.1481L199.913 109.326L129.576 137L102.17 67.1414L157.58 122.227ZM150.306 0H97V53.9609L157.562 114.167L211 60.651L150.306 0ZM173.249 54.0922C170.883 51.7232 168.318 50.5701 165.394 50.5701C162.1 50.5701 158.4 51.9458 153.02 55.1596C149.132 57.5 146.647 58.4933 144.72 58.4933C142.663 58.4933 138.547 56.1643 139.243 51.5405C139.539 49.5712 140.668 47.5618 142.503 45.718C146.219 42.0019 151.304 40.8774 155.476 45.113L159.717 40.866C157.004 38.1488 153.47 36.345 149.679 36.345C146.453 36.345 143.267 37.6408 140.2 40.2095L136.632 36.6304L132.653 40.6205L136.376 44.3423C133.132 49.0574 131.576 55.8789 136.809 61.1134C142.571 66.8845 149.28 64.2016 156.263 59.7891C159.683 57.6256 162.436 56.5753 164.67 56.5753C168.028 56.5753 171.396 59.418 170.815 63.7564C170.519 65.9598 169.333 68.1118 167.275 70.1611C164.705 72.7356 162.122 74.0371 159.597 74.0371C157.215 74.0371 155.339 72.9411 153.618 71.3998L149.406 75.6183C152.045 78.2327 155.573 79.9167 159.295 79.9167C162.396 79.9167 165.491 78.7693 168.484 76.5088L171.562 79.5799L175.535 75.6012L172.571 72.6271C176.806 67.5125 179.165 60.0174 173.249 54.0922ZM118.084 11.4167C123.431 11.4167 127.769 15.7607 127.769 21.1151C127.769 26.4695 123.431 30.8136 118.084 30.8136C112.738 30.8136 108.4 26.4695 108.4 21.1151C108.4 15.7607 112.738 11.4167 118.084 11.4167Z" fill="#333333"/>
</svg>
